<svg width="13" height="18" viewBox="0 0 13 18" fill="none" xmlns="http://www.w3.org/2000/svg">
<path fill-rule="evenodd" clip-rule="evenodd" d="M11.903 10.9785H11.933L7.00299 17.0625H6.00299L1.07001 10.9785H1.09998C0.384248 9.93628 0.000790172 8.70181 0 7.4375C0 5.71359 0.684822 4.06029 1.90381 2.8413C3.1228 1.62232 4.77609 0.9375 6.5 0.9375C8.22391 0.9375 9.8772 1.62232 11.0962 2.8413C12.3152 4.06029 13 5.71359 13 7.4375C13.0001 8.7015 12.6177 9.93593 11.903 10.9785ZM6.50299 3.0625C5.68816 3.06262 4.88862 3.28398 4.18976 3.70296C3.49089 4.12195 2.91892 4.72283 2.53485 5.44147C2.15079 6.16012 1.96909 6.96956 2.00909 7.78341C2.0491 8.59726 2.30928 9.38498 2.76196 10.0625H2.75L6.29199 14.5095H6.71399L10.292 10.0625H10.243C10.6956 9.38505 10.9559 8.59742 10.9959 7.78366C11.036 6.96989 10.8543 6.16052 10.4703 5.44191C10.0864 4.7233 9.51458 4.12241 8.81586 3.70335C8.11714 3.28429 7.31774 3.0628 6.50299 3.0625ZM6.50299 9.0625C6.20632 9.0625 5.91629 8.97453 5.66962 8.8097C5.42294 8.64488 5.23072 8.41061 5.11719 8.13652C5.00366 7.86243 4.97392 7.56083 5.0318 7.26986C5.08968 6.97889 5.23254 6.71162 5.44232 6.50184C5.6521 6.29206 5.91936 6.1492 6.21033 6.09132C6.5013 6.03345 6.80294 6.06315 7.07703 6.17668C7.35112 6.29021 7.58536 6.48247 7.75018 6.72915C7.91501 6.97582 8.00299 7.26583 8.00299 7.5625C8.00299 7.96032 7.84496 8.34186 7.56366 8.62316C7.28236 8.90447 6.90082 9.0625 6.50299 9.0625Z" fill="#A7A7A7"/>
</svg>
