<svg width="14" height="14" viewBox="0 0 14 14" fill="none" xmlns="http://www.w3.org/2000/svg">
<path fill-rule="evenodd" clip-rule="evenodd" d="M13.0102 10.7656C13.0148 10.6997 13.0054 10.6335 12.9824 10.5716C12.796 10.3489 12.5537 10.18 12.2804 10.0822C11.7566 9.78878 11.2209 9.50093 10.7027 9.19728C10.4676 8.99019 10.185 8.84442 9.88 8.77293C9.31636 8.77293 8.49364 10.4444 7.99407 10.4444C7.70568 10.3847 7.43417 10.2616 7.19921 10.0841C5.59342 9.22791 4.27806 7.91417 3.41993 6.30943C3.2423 6.07544 3.11892 5.80489 3.05871 5.51736C3.05871 5.01964 4.73014 4.19786 4.73014 3.63514C4.65831 3.33034 4.51221 3.04803 4.30486 2.81336C4.00307 2.29707 3.71521 1.76129 3.41993 1.23571C3.32185 0.962531 3.15259 0.720501 2.92964 0.534643C2.86795 0.510385 2.80177 0.499619 2.73557 0.503071C2.2944 0.529926 1.86045 0.627754 1.45043 0.792786C1.01545 1.05666 0.674132 1.45026 0.4745 1.91821C0.171831 2.44007 0.00843285 3.03099 0 3.63421C0.0682982 4.47035 0.284283 5.28776 0.637929 6.0485C0.836219 6.61275 1.09265 7.15486 1.40307 7.66607C2.56677 9.42746 4.07621 10.9341 5.83979 12.0944C6.35093 12.4052 6.89305 12.662 7.45736 12.8605C8.22066 13.2141 9.04056 13.4298 9.87907 13.4975C10.4828 13.49 11.0746 13.3279 11.5979 13.0267C12.0666 12.8272 12.4609 12.4855 12.7251 12.0499C12.8886 11.6399 12.9849 11.2063 13.0102 10.7656Z" fill="#A7A7A7"/>
</svg>
