<svg xmlns="http://www.w3.org/2000/svg" width="58" height="80" fill="none"><path fill="#B39F93" fill-opacity=".8" stroke="url(#a)" stroke-width="2" d="m29 78.53-.5-.56a180.78 180.78 0 0 1-13.18-16.5c-3.6-5.1-7.2-10.86-9.88-16.63C2.74 39.04 1 33.32 1 28.24 1 13.24 13.53 1 29 1s28 12.24 28 27.24c0 5.08-1.75 10.8-4.44 16.6a111.22 111.22 0 0 1-9.88 16.64A180.78 180.78 0 0 1 29 78.53Zm0-60.7c-5.84 0-10.67 4.65-10.67 10.4 0 2.78 1.13 5.43 3.14 7.38A10.8 10.8 0 0 0 29 38.65c2.82 0 5.53-1.1 7.53-3.04 2-1.95 3.14-4.6 3.14-7.37 0-5.76-4.83-10.42-10.67-10.42Z"/><defs><linearGradient id="a" x1="9.5" x2="58" y1="61" y2="7.5" gradientUnits="userSpaceOnUse"><stop offset=".01" stop-color="#A8988F"/><stop offset=".43" stop-color="#A8988F"/><stop offset="1" stop-color="#D9CBC2"/></linearGradient></defs></svg>